# xmcd
#
# Track frame offsets: 
#        150
#        10519
#        24176
#        37068
#        53315
#        65780
#        80098
#        93121
#        103984
#        113356
#        124466
#        136778
#        149000
#        164169
#        174610
#        186907
#        198634
#        210781
#        221382
#        232628
#        250548
#        261804
#        275550
#        286823
#        300904
#        313752
#        326092
#        337454
#
# Disc length: 4671 seconds
#
# Revision: 0
# Processed by: cddbd v1.5.2PL0 Copyright (c) Steve Scherf et al.
# Submitted via: ExactAudioCopy v0.95b3
#
DISCID=93123d1c
DTITLE=Va  - 1966 Best Year Ever - (Jan-Mar) - Disc 1
DYEAR=1900
DGENRE=
TTITLE0=We Can Work It Out - Beatles
TTITLE1=Don't Mess With Bill - Marvelettes
TTITLE2=Can You Please Crawl Out Your Window - Bob Dylan
TTITLE3=As Tears Go By - Rolling Stones
TTITLE4=Lightnin' Strikes - Lou Christie
TTITLE5=Day Tripper - Beatles
TTITLE6=Just Like Me - Paul Revere and the Raiders
TTITLE7=Barbara Ann - Beach Boys
TTITLE8=You Didn't Have To Be So Nice - Lovin' Spoonful
TTITLE9=Lies - Knickerbockers
TTITLE10=A Well Respected Man - Kinks
TTITLE11=My Generation - The Who
TTITLE12=You Baby - Turtles
TTITLE13=These Boots Are Made For Walkin' - Nancy Sinatra
TTITLE14=My World Is Empty Without You - Supremes
TTITLE15=California Dreamin' - Mamas and Papas
TTITLE16=California Dreamin' - Mamas and Papas
TTITLE17=Daydream - Lovin' Spoonful
TTITLE18=Homeward Bound - Simon and Garfunkel
TTITLE19=19th Nervous Breakdown - Rolling Stones
TTITLE20=Woman - Peter and Gordon
TTITLE21=Soul and Inspiration - Righteous Brothers
TTITLE22=Kicks - Paul Revere and the Raiders
TTITLE23=Secret Agent Man - Johnny Rivers
TTITLE24=Time Won't Let Me - Outsiders
TTITLE25=Nowhere Man - Beatles
TTITLE26=Ballad of the Green Berets - Sgt Barry Sadler
TTITLE27=Caroline No - Brian Wilson
EXTD=
EXTT0=
EXTT1=
EXTT2=
EXTT3=
EXTT4=
EXTT5=
EXTT6=
EXTT7=
EXTT8=
EXTT9=
EXTT10=
EXTT11=
EXTT12=
EXTT13=
EXTT14=
EXTT15=
EXTT16=
EXTT17=
EXTT18=
EXTT19=
EXTT20=
EXTT21=
EXTT22=
EXTT23=
EXTT24=
EXTT25=
EXTT26=
EXTT27=
PLAYORDER=
